<svg xmlns="http://www.w3.org/2000/svg" width="870" height="870"><path d="M523.5 149.11c-58.838 4.43-116.089 27.159-159.507 63.326L357 218.26V653.619l5.25 4.484c36.983 31.588 85.404 53.48 136.847 61.873 45.339 7.397 93.302 3.488 137.341-11.191 30.534-10.178 61.884-27.16 87.562-47.431 10.949-8.644 37.71-35.405 46.354-46.354 60.422-76.538 78.226-178.052 47.431-270.438-10.178-30.534-27.16-61.884-47.431-87.562-8.644-10.949-35.405-37.71-46.354-46.354-56.845-44.876-128.733-66.939-200.5-61.536M63.114 321.25c-1.541 3.438-4.222 10.105-5.956 14.817-22.758 61.822-23.679 130.115-2.593 192.428 4.048 11.963 10.003 26.442 11.497 27.955.584.592.938-44.781.938-120.25 0-66.66-.244-121.2-.542-121.2-.298 0-1.803 2.813-3.344 6.25" fill="undefined" fill-rule="evenodd"/></svg>