<?xml version="1.0" encoding="UTF-8" standalone="no"?>
<svg
   version="1.1"
   viewBox="0.00 0.00 128.00 128.00"
   id="svg3"
   sodipodi:docname="favicon-128x128.svg"
   inkscape:version="1.3 (0e150ed6c4, 2023-07-21)"
   xmlns:inkscape="http://www.inkscape.org/namespaces/inkscape"
   xmlns:sodipodi="http://sodipodi.sourceforge.net/DTD/sodipodi-0.dtd"
   xmlns:xlink="http://www.w3.org/1999/xlink"
   xmlns="http://www.w3.org/2000/svg"
   xmlns:svg="http://www.w3.org/2000/svg">
  <defs
     id="defs3">
    <linearGradient
       id="linearGradient3"
       inkscape:collect="always">
      <stop
         style="stop-color:#2d2d2d;stop-opacity:0.40113997;"
         offset="0.40612599"
         id="stop4" />
      <stop
         style="stop-color:#858181;stop-opacity:1;"
         offset="1"
         id="stop3" />
    </linearGradient>
    <linearGradient
       inkscape:collect="always"
       xlink:href="#linearGradient3"
       id="linearGradient4"
       x1="36.234832"
       y1="64.18833"
       x2="127.78743"
       y2="64.18833"
       gradientUnits="userSpaceOnUse" />
  </defs>
  <sodipodi:namedview
     id="namedview3"
     pagecolor="#ffffff"
     bordercolor="#000000"
     borderopacity="0.25"
     inkscape:showpageshadow="2"
     inkscape:pageopacity="0.0"
     inkscape:pagecheckerboard="0"
     inkscape:deskcolor="#d1d1d1"
     inkscape:zoom="4.5507813"
     inkscape:cx="63.835193"
     inkscape:cy="107.78369"
     inkscape:window-width="3440"
     inkscape:window-height="1371"
     inkscape:window-x="0"
     inkscape:window-y="0"
     inkscape:window-maximized="1"
     inkscape:current-layer="svg3" />
  <path
     stroke="#d3b86c"
     stroke-width="2.00"
     fill="none"
     stroke-linecap="butt"
     vector-effect="non-scaling-stroke"
     d="   M 64.31 21.87   C 28.03 38.49 26.79 86.48 61.30 105.47   Q 61.93 105.82 64.31 106.45"
     id="path1" />
  <path
     fill="#fdcb33"
     d="   M 64.31 21.87   C 28.03 38.49 26.79 86.48 61.30 105.47   Q 61.93 105.82 64.31 106.45   C 63.98 109.80 46.93 109.88 44.38 109.88   C 28.12 109.90 13.23 98.65 6.40 85.01   C -12.37 47.49 24.80 6.06 64.31 21.87   Z"
     id="path2" />
  <path
     fill="#858181"
     d="   M 64.31 106.45   Q 61.93 105.82 61.30 105.47   C 26.79 86.48 28.03 38.49 64.31 21.87   Q 73.66 18.25 83.49 18.52   C 110.09 19.27 129.16 41.14 127.71 67.97   C 126.57 89.04 107.66 109.88 85.76 109.76   C 80.98 109.73 75.55 110.35 70.94 108.99   C 69.86 108.67 65.28 107.77 65.20 106.64   Q 65.16 106.17 64.71 106.27   Q 64.51 106.31 64.31 106.45   Z"
     id="path3"
     style="fill:url(#linearGradient4)" />
</svg>
