<?xml version="1.0" encoding="UTF-8"?>
<!DOCTYPE svg PUBLIC "-//W3C//DTD SVG 1.1//EN" "http://www.w3.org/Graphics/SVG/1.1/DTD/svg11.dtd">
<svg xmlns="http://www.w3.org/2000/svg" version="1.1" width="987px" height="987px" style="shape-rendering:geometricPrecision; text-rendering:geometricPrecision; image-rendering:optimizeQuality; fill-rule:evenodd; clip-rule:evenodd" xmlns:xlink="http://www.w3.org/1999/xlink">
<g><path style="opacity:0.997" fill="#3d6956" d="M 462.5,-0.5 C 483.167,-0.5 503.833,-0.5 524.5,-0.5C 658.03,10.3639 770.196,64.6972 861,162.5C 869.557,171.956 877.391,181.956 884.5,192.5C 754.18,323.32 623.68,453.986 493,584.5C 361.821,454.654 231.321,324.154 101.5,193C 178.7,93.1878 279.7,31.1878 404.5,7C 423.883,3.71936 443.217,1.21936 462.5,-0.5 Z M 466.5,64.5 C 594.723,58.7758 704.39,100.442 795.5,189.5C 695.167,290.5 594.5,391.167 493.5,491.5C 392.5,391.167 291.833,290.5 191.5,189.5C 267.539,114.125 359.206,72.4582 466.5,64.5 Z"/></g>
<g><path style="opacity:0.998" fill="#3d6956" d="M 986.5,459.5 C 986.5,480.167 986.5,500.833 986.5,521.5C 973.106,679.505 902.772,805.005 775.5,898C 696.506,951.943 609.172,981.443 513.5,986.5C 499.5,986.5 485.5,986.5 471.5,986.5C 314.724,975.877 188.89,908.544 94,784.5C 38.0515,706.499 6.55153,619.499 -0.5,523.5C -0.5,502.833 -0.5,482.167 -0.5,461.5C 5.13961,380.747 28.9729,305.747 71,236.5C 97.3189,263.652 123.819,290.652 150.5,317.5C 106.158,375.394 97.3249,438.394 124,506.5C 154.57,570.219 205.07,606.052 275.5,614C 324.771,617.296 368.438,603.463 406.5,572.5C 435.82,601.32 464.986,630.32 494,659.5C 523.014,630.32 552.18,601.32 581.5,572.5C 635.845,614.947 695.845,625.114 761.5,603C 815.954,580.546 852.454,541.38 871,485.5C 887.548,423.212 875.715,367.045 835.5,317C 862.014,290.32 888.68,263.82 915.5,237.5C 936.807,270.79 953.307,306.457 965,344.5C 976.497,382.166 983.664,420.499 986.5,459.5 Z"/></g>
<g><path style="opacity:0.996" fill="#3d6857" d="M 797.5,353.5 C 799.017,353.511 800.184,354.177 801,355.5C 826.391,392.951 832.058,433.285 818,476.5C 795.703,530.586 755.203,558.919 696.5,561.5C 667.902,561.19 642.236,552.523 619.5,535.5C 618.417,534.635 618.251,533.635 619,532.5C 678.701,472.965 738.201,413.299 797.5,353.5 Z"/></g>
<g><path style="opacity:0.99" fill="#3d6856" d="M 187.5,354.5 C 248.43,413.763 308.764,473.763 368.5,534.5C 331.274,561.648 290.607,568.148 246.5,554C 197.389,534.214 169.222,498.047 162,445.5C 159.158,411.853 167.658,381.52 187.5,354.5 Z"/></g>
</svg>
