<svg xmlns="http://www.w3.org/2000/svg" xmlns:xlink="http://www.w3.org/1999/xlink" width="125" height="125" viewBox="0 0 125 125">
  <defs>
    <clipPath id="clip-path">
      <rect id="Rectangle_32" data-name="Rectangle 32" width="125" height="125" transform="translate(385 345)" fill="#fff"/>
    </clipPath>
  </defs>
  <g id="favicon" transform="translate(-385 -345)">
    <g id="Mask_Group_3" data-name="Mask Group 3" clip-path="url(#clip-path)">
      <path id="Path_151" data-name="Path 151" d="M91.487,31.85a7.794,7.794,0,0,0-7.605,0L66.434,41.97l-11.855,6.6L37.132,58.69a7.8,7.8,0,0,1-7.605,0L15.658,50.77a7.566,7.566,0,0,1-3.8-6.38V28.77a7.114,7.114,0,0,1,3.8-6.38l13.645-7.7a7.8,7.8,0,0,1,7.605,0l13.645,7.7a7.566,7.566,0,0,1,3.8,6.38V38.89l11.855-6.82V21.95a7.114,7.114,0,0,0-3.8-6.38L37.132,1.051a7.8,7.8,0,0,0-7.605,0L3.8,15.571A7.114,7.114,0,0,0,0,21.95V51.21a7.114,7.114,0,0,0,3.8,6.38l25.724,14.52a7.8,7.8,0,0,0,7.605,0l17.447-9.9,11.855-6.82,17.448-9.9a7.794,7.794,0,0,1,7.605,0l13.645,7.7a7.567,7.567,0,0,1,3.8,6.38v15.62a7.114,7.114,0,0,1-3.8,6.38l-13.645,7.92a7.8,7.8,0,0,1-7.605,0l-13.645-7.7a7.567,7.567,0,0,1-3.8-6.38V65.289l-11.855,6.82v10.12a7.114,7.114,0,0,0,3.8,6.38l25.724,14.52a7.8,7.8,0,0,0,7.605,0l25.724-14.52a7.567,7.567,0,0,0,3.8-6.38V52.97a7.114,7.114,0,0,0-3.8-6.38Z" transform="translate(387 354.939)" fill="#8247e5"/>
    </g>
  </g>
</svg>
